<?xml version="1.0" encoding="UTF-8" standalone="no"?>
<!DOCTYPE svg PUBLIC "-//W3C//DTD SVG 1.1//EN" "http://www.w3.org/Graphics/SVG/1.1/DTD/svg11.dtd">
<svg xmlns="http://www.w3.org/2000/svg" version="1.1" viewBox="0.00 0.00 769.00 512.00">
<path fill="#000000" d="
  M 460.59 0.00
  L 461.78 0.00
  L 661.52 331.96
  A 1.19 1.19 0.0 0 1 660.50 333.76
  L 508.49 333.76
  A 0.96 0.96 0.0 0 1 507.67 333.30
  L 349.71 70.04
  Q 348.04 67.25 350.83 65.58
  L 460.59 0.00
  Z"
/>
<path fill="#000000" d="
  M 424.70 512.00
  L 412.14 512.00
  C 386.03 509.97 364.65 493.13 354.53 470.31
  Q 350.92 462.16 349.78 453.05
  Q 349.03 447.06 349.05 441.00
  Q 349.07 434.89 350.35 429.06
  Q 356.83 399.66 381.63 383.96
  Q 390.17 378.56 399.85 375.94
  Q 427.91 368.33 454.20 383.27
  Q 454.69 383.55 454.69 382.99
  L 454.68 334.22
  Q 454.68 333.76 454.22 333.76
  L 338.46 333.76
  Q 337.94 333.76 337.94 334.29
  L 337.94 363.02
  A 1.71 1.71 0.0 0 1 336.23 364.73
  L 303.50 364.73
  A 1.23 1.23 0.0 0 1 302.27 363.50
  L 302.27 334.54
  Q 302.27 333.99 301.99 333.52
  L 214.51 187.73
  A 2.29 2.28 -31.1 0 1 215.29 184.60
  L 324.87 118.69
  Q 326.95 117.44 328.20 119.52
  L 455.57 331.74
  Q 455.89 332.27 456.51 332.27
  L 486.50 332.27
  A 1.23 1.23 0.0 0 1 487.73 333.50
  L 487.73 507.50
  A 1.23 1.23 0.0 0 1 486.50 508.73
  L 456.13 508.72
  Q 454.69 508.72 454.68 507.28
  L 454.68 502.79
  Q 454.68 502.15 454.13 502.48
  Q 440.50 510.65 424.70 512.00
  Z
  M 455.11 442.91
  A 36.80 36.80 0.0 0 0 418.31 406.11
  A 36.80 36.80 0.0 0 0 381.51 442.91
  A 36.80 36.80 0.0 0 0 418.31 479.71
  A 36.80 36.80 0.0 0 0 455.11 442.91
  Z"
/>
<path fill="#000000" d="
  M 79.44 303.62
  L 190.47 236.98
  A 2.08 2.07 -30.8 0 1 193.31 237.69
  L 249.56 331.45
  A 1.53 1.52 -15.5 0 1 248.25 333.76
  L 97.74 333.76
  A 2.41 2.40 -15.5 0 1 95.68 332.60
  Q 87.74 319.45 80.44 307.25
  Q 79.55 305.76 79.19 304.51
  Q 79.01 303.88 79.44 303.62
  Z"
/>
<path fill="#000000" d="
  M 763.82 338.17
  A 20.96 20.96 0.0 0 1 742.86 359.13
  A 20.96 20.96 0.0 0 1 721.90 338.17
  A 20.96 20.96 0.0 0 1 742.86 317.21
  A 20.96 20.96 0.0 0 1 763.82 338.17
  Z
  M 758.66 338.20
  A 15.84 15.84 0.0 0 0 742.82 322.36
  A 15.84 15.84 0.0 0 0 726.98 338.20
  A 15.84 15.84 0.0 0 0 742.82 354.04
  A 15.84 15.84 0.0 0 0 758.66 338.20
  Z"
/>
<path fill="#000000" d="
  M 747.34 340.39
  L 752.64 348.10
  A 1.20 1.20 0.0 0 1 751.58 349.98
  L 747.81 349.78
  Q 747.25 349.75 746.95 349.26
  L 743.00 342.66
  Q 742.72 342.19 742.20 342.00
  L 738.95 340.84
  A 0.47 0.47 0.0 0 0 738.32 341.28
  L 738.31 348.79
  Q 738.31 349.26 737.88 349.47
  Q 736.00 350.37 734.03 349.73
  A 1.08 1.08 0.0 0 1 733.28 348.70
  L 733.27 328.75
  A 1.68 1.68 0.0 0 1 734.92 327.07
  C 740.36 326.97 751.29 325.17 751.62 333.65
  C 751.73 336.46 749.67 338.45 747.45 339.83
  Q 747.10 340.05 747.34 340.39
  Z
  M 745.9486 333.1632
  A 1.42 1.42 0.0 0 0 744.5261 331.7457
  L 739.6261 331.7543
  A 1.42 1.42 0.0 0 0 738.2086 333.1768
  L 738.2114 334.8168
  A 1.42 1.42 0.0 0 0 739.6339 336.2343
  L 744.5339 336.2257
  A 1.42 1.42 0.0 0 0 745.9514 334.8032
  L 745.9486 333.1632
  Z"
/>
<path fill="#000000" d="
  M 224.92 512.00
  L 212.16 512.00
  Q 183.52 508.84 165.72 487.96
  Q 159.23 480.34 155.15 471.10
  Q 145.26 448.66 151.59 424.70
  Q 154.18 414.91 159.47 406.41
  Q 175.01 381.47 205.30 374.59
  Q 209.62 373.60 219.64 373.23
  C 222.45 373.13 225.72 373.86 229.00 374.26
  Q 242.23 375.89 254.65 383.46
  Q 255.09 383.73 255.09 383.22
  L 255.09 333.97
  A 1.70 1.70 0.0 0 1 256.79 332.27
  L 286.46 332.27
  A 1.44 1.44 0.0 0 1 287.90 333.71
  L 287.90 507.16
  A 1.57 1.56 -90.0 0 1 286.34 508.73
  L 256.79 508.73
  A 1.70 1.70 0.0 0 1 255.09 507.04
  L 255.08 502.78
  A 0.42 0.42 0.0 0 0 254.45 502.42
  C 245.28 507.76 235.39 511.28 224.92 512.00
  Z
  M 255.42 442.92
  A 36.84 36.84 0.0 0 0 218.58 406.08
  A 36.84 36.84 0.0 0 0 181.74 442.92
  A 36.84 36.84 0.0 0 0 218.58 479.76
  A 36.84 36.84 0.0 0 0 255.42 442.92
  Z"
/>
<path fill="#000000" d="
  M 769.00 459.36
  L 769.00 471.80
  Q 766.59 491.38 749.43 501.39
  Q 738.39 507.82 725.71 509.47
  Q 703.12 512.40 681.22 506.35
  C 668.90 502.95 657.09 494.55 651.89 482.70
  C 649.26 476.73 649.21 471.62 648.22 465.90
  A 1.58 1.57 85.1 0 1 649.77 464.05
  L 683.81 464.06
  A 1.65 1.64 -1.1 0 1 685.46 465.64
  C 685.91 475.88 692.83 480.07 702.01 481.93
  C 709.98 483.55 718.64 483.42 725.89 480.41
  C 729.92 478.74 733.85 474.58 733.35 469.99
  C 732.62 463.31 720.54 459.91 714.52 458.57
  Q 699.59 455.27 684.82 451.26
  Q 681.86 450.45 678.92 449.53
  C 671.76 447.28 664.38 442.58 659.89 437.12
  Q 657.89 434.69 655.84 430.35
  Q 654.15 426.78 653.67 422.84
  Q 649.74 390.29 679.74 376.22
  Q 682.65 374.86 690.50 373.36
  C 699.25 371.68 708.47 372.02 717.39 372.26
  C 719.78 372.32 722.67 373.03 725.75 373.25
  Q 729.52 373.52 736.19 375.71
  Q 742.04 377.63 746.00 379.89
  Q 765.86 391.22 765.65 415.58
  A 1.16 1.16 0.0 0 1 764.49 416.73
  L 732.11 416.72
  A 1.61 1.61 0.0 0 1 730.57 415.57
  Q 729.56 412.11 728.18 408.22
  Q 726.33 403.03 719.63 401.14
  Q 713.44 399.40 703.76 399.82
  Q 696.76 400.12 692.03 403.28
  C 689.41 405.02 687.29 410.15 688.66 413.12
  C 690.92 418.03 701.51 421.31 706.74 422.28
  Q 710.10 422.90 720.11 425.51
  Q 720.22 425.54 730.42 427.93
  Q 739.84 430.14 748.63 434.14
  C 758.83 438.79 767.92 447.64 769.00 459.36
  Z"
/>
<path fill="#000000" d="
  M 75.18 512.00
  L 62.45 512.00
  Q 38.83 509.80 21.70 493.81
  Q 2.75 476.12 0.00 450.19
  L 0.00 435.46
  Q 1.36 423.65 4.78 416.02
  Q 17.84 386.91 46.71 376.94
  Q 56.49 373.57 69.99 373.27
  Q 71.85 373.23 74.96 373.81
  C 77.22 374.23 79.62 374.20 81.65 374.59
  Q 93.94 376.96 104.77 383.28
  Q 105.28 383.58 105.28 382.98
  L 105.26 378.53
  A 1.46 1.46 0.0 0 1 106.72 377.07
  L 136.70 377.08
  A 1.62 1.62 0.0 0 1 138.32 378.70
  L 138.32 506.58
  A 2.15 2.15 0.0 0 1 136.17 508.73
  L 106.62 508.73
  A 1.36 1.35 -90.0 0 1 105.27 507.37
  L 105.27 502.76
  Q 105.27 502.19 104.78 502.49
  Q 91.23 510.74 75.18 512.00
  Z
  M 105.71 442.93
  A 36.80 36.80 0.0 0 0 68.91 406.13
  A 36.80 36.80 0.0 0 0 32.11 442.93
  A 36.80 36.80 0.0 0 0 68.91 479.73
  A 36.80 36.80 0.0 0 0 105.71 442.93
  Z"
/>
<rect fill="#000000" x="302.28" y="373.27" width="35.66" height="135.46" rx="1.49"/>
<path fill="#000000" d="
  M 572.94 512.00
  L 560.13 512.00
  Q 533.66 509.13 516.10 490.67
  Q 509.25 483.46 504.68 474.36
  Q 492.62 450.37 499.75 424.16
  Q 502.42 414.35 507.77 405.93
  Q 523.89 380.58 555.00 374.26
  Q 557.72 373.71 567.23 373.25
  C 570.35 373.10 573.73 373.93 577.25 374.28
  Q 589.33 375.48 602.38 383.37
  Q 603.03 383.77 603.03 383.00
  L 603.04 378.89
  A 1.83 1.82 -89.8 0 1 604.86 377.07
  L 634.20 377.08
  A 1.62 1.61 90.0 0 1 635.81 378.70
  L 635.81 507.33
  A 1.40 1.39 -90.0 0 1 634.42 508.73
  L 605.02 508.73
  A 1.97 1.97 0.0 0 1 603.05 506.77
  L 603.02 502.77
  A 0.46 0.46 0.0 0 0 602.32 502.37
  Q 588.65 510.68 572.94 512.00
  Z
  M 603.35 442.92
  A 36.82 36.82 0.0 0 0 566.53 406.10
  A 36.82 36.82 0.0 0 0 529.71 442.92
  A 36.82 36.82 0.0 0 0 566.53 479.74
  A 36.82 36.82 0.0 0 0 603.35 442.92
  Z"
/>
</svg>
